<svg fill="currentColor" viewBox="0 0 24 24" xmlns="http://www.w3.org/2000/svg"><path d="M18.535 9.578c0 1.482-.835 1.552-6.44 1.552-5.656 0-6.626-.07-6.626-1.552v-2.48c0-1.792 2.924-2.95 6.532-2.95 3.61 0 6.533 1.158 6.533 2.95v2.48zm-2.135 5.5c-.67 0-1.214-.55-1.214-1.23 0-.677.543-1.228 1.214-1.228.67 0 1.213.55 1.213 1.23 0 .678-.543 1.228-1.213 1.228zm-8.78 0c-.672 0-1.215-.55-1.215-1.23 0-.677.543-1.228 1.214-1.228.67 0 1.212.55 1.212 1.23 0 .678-.543 1.228-1.213 1.228zm12.254-8.456h-.012c-.1-2.084-2.353-3.48-5.423-3.96V1.237S13.354 1 12.093 1c-1.26 0-2.42.238-2.42.238v1.39C6.523 3.08 4.24 4.493 4.14 6.623h-.01s-.203 1.656-.203 4.17c0 2.576.202 4.312.202 4.312h.007c.05 1.475.937 2.804 2.343 3.77 0 0 .19.14.594.323-.44.832-2.12 3.263-2.267 3.797.407 0 1.645.02 1.99-.01.088-.007.216-.11.26-.238.105-.31 1.237-1.938 1.876-2.97.8.164 1.798.188 3.052.188 1.277 0 2.31-.04 3.128-.217.623 1.045 1.68 2.737 1.858 3.075l.178.163c.37.016 1.654.007 2.043.007-.912-1.662-1.877-3.09-2.265-3.81.386-.174.59-.31.59-.31 1.407-.964 2.296-2.293 2.347-3.768h.007s.197-2.186.197-4.41c0-2.126-.196-4.072-.196-4.072z"></path></svg>